<?xml version="1.0" encoding="UTF-8" standalone="no"?>
<svg
   width="590"
   height="598"
   viewBox="0 0 590 598"
   version="1.1"
   id="svg3"
   sodipodi:docname="russignol-logo-black.svg"
   inkscape:version="1.4.2 (ebf0e940d0, 2025-05-08)"
   xmlns:inkscape="http://www.inkscape.org/namespaces/inkscape"
   xmlns:sodipodi="http://sodipodi.sourceforge.net/DTD/sodipodi-0.dtd"
   xmlns="http://www.w3.org/2000/svg"
   xmlns:svg="http://www.w3.org/2000/svg">
  <defs
     id="defs3" />
  <sodipodi:namedview
     id="namedview3"
     pagecolor="#ffffff"
     bordercolor="#000000"
     borderopacity="0.25"
     inkscape:showpageshadow="2"
     inkscape:pageopacity="0.0"
     inkscape:pagecheckerboard="0"
     inkscape:deskcolor="#d1d1d1"
     inkscape:zoom="2.3223373"
     inkscape:cx="190.7561"
     inkscape:cy="366.44117"
     inkscape:window-width="1902"
     inkscape:window-height="2115"
     inkscape:window-x="0"
     inkscape:window-y="0"
     inkscape:window-maximized="1"
     inkscape:current-layer="svg3" />
  <path
     d="M259.526 132.064C266.346 131.561 266.377 133.375 271.114 137.333C276.063 141.266 281.978 143.674 287.993 145.491C295.782 147.844 304.94 146.933 313.05 146.953C331.655 146.998 349.679 153.971 364.004 165.76C367.629 168.744 371.312 172.718 374.703 176.027C378.675 173.966 406.493 171.75 412.144 171.153C414.405 170.914 416.501 172.974 418.014 174.484C418.048 175.992 418.012 177.659 418.01 179.18C416.95 180.759 410.958 186.559 409.287 188.228L390.84 206.681C392.28 207.151 393.816 207.67 395.236 208.228C403.22 211.366 411.601 213.756 419.386 217.344C420.799 217.995 422 219.406 423.011 220.566C423.061 221.745 422.987 223.195 422.958 224.396C417.831 230.943 401.311 235.345 393.75 239.112C393.525 239.61 394.823 251.633 395.01 253.282C400.204 299.138 387.706 351.066 353.701 383.839C351.47 385.934 349.482 388.265 347.144 390.253C319.857 413.459 285.141 425.825 249.624 428.265C247.073 428.44 244.37 429.002 241.873 429.053C234.361 429.205 226.831 429.141 219.318 429.142C216.223 432.521 214.136 436.574 211.768 440.503L204.242 452.797C199.158 461.185 193.697 469.476 188.563 477.836C186.755 481.438 183.638 485.452 181.777 488.845C171.498 506.783 158.416 507.033 139.998 507.121C124.692 507.194 108.642 503.673 104.338 486.386C100.406 470.592 114.844 459.405 124.578 449.7C127.201 447.085 129.576 443.881 132.221 441.078L155.232 417.003C159.833 412.129 167.577 405.581 171.053 400.24C161.413 399.429 133.049 391.37 124.557 384.793C122.973 383.304 122.987 381.916 122.944 379.911C122.806 373.455 134.045 368.623 139.03 364.896C147.395 358.642 155.783 352.566 163.576 345.552C178.239 332.372 191.274 317.486 202.404 301.211C212.255 286.649 219.379 272.235 224.573 255.4C232.206 230.661 230.491 203.704 245.507 181.492C248.261 177.418 251.537 172.746 255.101 169.326C248.523 167.023 246.165 167.72 240.223 163.065C239.98 161.869 239.74 161.058 239.384 159.886C240.232 156.167 240.425 155.412 243.485 153.056C251.036 152.693 251.48 154.627 257.924 155.691C261.272 156.244 270.985 156.013 274.796 155.96C268.765 151.429 258.535 147.807 256.041 139.559C255.84 138.895 256.005 136.435 256.046 135.614C257.18 133.886 257.946 133.257 259.526 132.064ZM233.032 274.511C239.811 267.02 261.066 260.356 270.906 259.983C303.268 258.85 327.995 289.237 323.89 320.464C317.438 369.542 260.822 394.324 217.322 400.486C207.241 401.915 199.518 402.145 189.421 402.123C187.075 404.405 185.613 406.863 183.369 409.109C176.539 415.838 169.977 422.317 163.805 429.668C159.809 434.429 153.695 438.982 149.757 443.814C143.047 452.047 135.075 458.838 128.36 467.056C124.121 472.244 119.144 473.665 119.022 481.498C119.013 482.477 119.023 483.456 119.051 484.434C120.64 486.307 124.522 491.217 127.262 490.769C130.065 487.913 135.315 480.832 138.016 477.455C141.89 472.678 145.697 467.848 149.435 462.965C150.84 461.144 152.706 458.96 153.939 457.093C156.62 453.761 159.278 450.411 161.913 447.044C165.454 442.459 168.764 436.897 174.394 434.852C177.464 436.025 179.96 437.179 181.501 440.423C181.966 441.403 182.214 443.282 181.685 444.197C178.092 450.399 171.955 457.901 167.426 463.544C160.536 472.127 152.274 484.348 144.745 491.936C152.058 492.101 158.455 492.608 164.26 487.001C168.919 482.501 173.538 474.296 177.045 468.766C183.73 458.349 190.308 447.863 196.777 437.31C200.749 430.803 204.605 424.085 208.823 417.723C209.584 416.576 210.474 415.732 211.658 415.026C221.902 414.794 232.034 415.551 242.165 414.137C244.622 413.795 247.525 414.159 250.019 413.85C257.433 412.932 265.912 411.965 273.215 410.401C300.653 404.527 327.948 390.647 347.177 370.037C351.793 365.089 357.33 357.601 360.754 351.782C362.244 349.25 364.689 345.513 365.933 342.977C375.065 324.375 379.899 305.25 381.205 284.598C381.536 279.372 382.434 275.117 381.987 269.511C381.762 266.686 381.514 264.356 381.206 261.541C380.921 258.938 380.966 256.205 380.675 253.448C380.012 247.165 378.523 240.86 377.675 234.71C365.085 225.823 358.708 209.133 362.215 194.16C362.497 192.957 364.262 186.576 363.84 185.979C351.74 168.849 324.834 159.584 305.65 161.307C300.747 162.212 296.358 162.663 291.397 164.046C279.833 167.097 269.575 174.513 261.898 183.652C243.959 205.008 246.652 235.457 237.946 260.744C236.355 265.366 234.602 269.918 233.032 274.511ZM194.576 334.935C205.103 335.493 211.432 327.086 217.868 334.292C218.259 334.733 218.642 335.182 219.016 335.638C219.059 338.281 219.233 341.105 216.977 343.168C212.194 347.543 201.071 349.582 194.72 350.063C190.727 350.366 182.995 349.507 179.711 350.761C177.14 351.744 172.052 357.451 169.9 359.704C173.199 360.983 174.224 360.616 177.386 361.23C183.359 362.391 186.8 361.82 192.639 361.201C200.015 360.42 206.701 359.191 213.763 356.734C219.467 354.961 221.091 352.713 227.202 353.079C229.449 354.629 230.023 355.462 231.907 357.384C232.138 360.069 232.289 362.231 230.467 364.461C225.559 370.471 200.983 375.346 193.005 376.004C190.415 376.218 187.785 376.147 185.189 376.121C183.111 376.136 178.085 376.227 176.194 376.004C170.782 375.367 160.438 373.216 155.607 370.992C153.241 373.403 148.63 376.637 145.773 378.609C149.454 379.34 152.782 381.319 156.343 382.31C162.743 384.091 169.414 385.203 175.953 386.342C179.365 386.923 182.932 387.04 186.394 387.112C188.937 387.165 193.322 388.296 195.678 387.99C200.659 387.342 206.183 387.27 211.079 386.758C217.618 386.075 224.585 384.464 230.971 383.004C247.701 379.148 262.239 373.477 276.764 364.164C291.483 354.727 304.572 341.662 308.6 324.087C311.225 312.634 309.953 302.037 303.588 292.078C298.924 284.779 290.127 277.513 281.471 275.895C276.851 275.032 272.658 274.929 267.981 275.202C250.418 276.816 227.463 294.172 216.327 307.323C209.542 315.336 202.464 327.728 194.576 334.935ZM387.554 225.81C391.672 226.234 392.928 225.582 396.818 224.239C397.874 224.007 398.227 224.12 398.9 223.492C397.625 221.918 381.817 216.644 379.077 216.049C379.207 219.417 385.002 223.967 387.554 225.81ZM393.236 185.078C389.518 187.193 381.927 185.862 378.645 187.948C376.138 189.542 374.459 200.53 374.12 203.376L374.481 203.903L375.38 203.916C378.187 201.077 380.974 198.122 384.049 195.578C387.725 192.536 391.337 189.203 394.562 185.684L394.509 185.252C393.868 185.055 393.898 185.037 393.236 185.078Z"
     id="path1" />
  <path
     d="M310.234 179.266C319.792 177.112 329.768 180.296 336.312 187.589C342.856 194.882 344.946 205.145 341.775 214.417C338.604 223.689 330.668 230.522 321.029 232.278C306.546 234.918 292.612 225.489 289.674 211.06C286.735 196.632 295.873 182.503 310.234 179.266ZM321.665 221.591C322.916 221.106 323.082 221.31 323.503 220.432C322.873 218.956 319.83 218.106 318.333 216.935C310.582 210.868 311.186 198.312 319.53 193.117C320.204 192.698 323.614 192.003 324.625 191.783L324.778 191.385C322.785 189.117 316.714 188.982 313.836 189.279C294.084 192.888 295.852 220.269 314.802 221.996C315.943 222.1 320.871 222.092 321.665 221.591Z"
     id="path2" />
  <path
     d="m 299.212,92.0588 c 33.565,2.9241 64.069,13.2632 92.727,30.6072 47.812,29.476 82.059,76.635 95.298,131.227 12.918,54.846 3.571,112.577 -25.992,160.543 -7.727,12.659 -17.226,23.707 -27.045,34.721 -1.475,1.655 -3.018,3.204 -4.594,4.758 -27.587,26.976 -61.915,46.04 -99.393,55.199 -39.029,9.197 -79.849,7.316 -117.867,-5.432 -2.418,-0.792 -22.443,-8.129 -22.314,-9.435 0.288,-2.905 5.345,-9.639 7.386,-12.36 7.119,2.71 13.704,5.978 21.138,8.381 35.263,11.448 73.017,12.851 109.033,4.053 37.971,-9.365 72.339,-29.722 98.802,-58.524 13.249,-14.65 24.648,-31.824 33.068,-49.678 12.407,-26.031 18.755,-54.536 18.565,-83.374 -10e-4,-3.206 0.096,-7.298 -0.097,-10.462 -0.903,-13.172 -2.955,-26.24 -6.131,-39.054 -6.54,-20.137 -10.66,-33.015 -21.918,-51.59 -46.431,-76.604 -136.334,-111.5832 -222.503,-88.297 -51.192,14.292 -94.55,48.455 -120.428,94.887 -16.0148,28.695 -24.2758,61.069 -23.9689,93.93 -3e-4,3.222 0.0789,6.514 0.0133,9.729 -0.1533,7.504 0.9558,14.866 2.1677,22.274 3.6119,23.243 11.4379,45.63 23.0929,66.06 4.561,8.098 10.216,15.848 15.654,23.382 1.085,2.014 4.348,4.33 4.879,6.398 0.493,1.92 -3.527,5.043 -4.568,6.42 -1.309,1.732 -2.306,3.186 -3.725,4.663 l -0.318,0.329 C 115.81,437.872 113.138,433.911 109.835,429.56 68.3839,374.964 56.5464,300.637 78.8127,235.849 c 4.1738,-12.144 8.5195,-22.292 14.6423,-33.788 28.927,-53.046 79.042,-91.285 137.836,-105.1732 22.77751,-5.256659 44.42129,-6.448713 67.921,-4.829 z"
     id="path3"
     sodipodi:nodetypes="cccccccccccccccccccccccccscccccccc" />
</svg>
