<svg fill="#F97316" version="1.1" viewBox="0 0 590 598" xmlns="http://www.w3.org/2000/svg">
<path d="m259.53 132.06c6.82-0.503 6.851 1.311 11.588 5.269 4.949 3.933 10.864 6.341 16.879 8.158 7.789 2.353 16.947 1.442 25.057 1.462 18.605 0.045 36.629 7.018 50.954 18.807 3.625 2.984 7.308 6.958 10.699 10.267 3.972-2.061 31.79-4.277 37.441-4.874 2.261-0.239 4.357 1.821 5.87 3.331 0.034 1.508-2e-3 3.175-4e-3 4.696-1.06 1.579-7.052 7.379-8.723 9.048l-18.447 18.453c1.44 0.47 2.976 0.989 4.396 1.547 7.984 3.138 16.365 5.528 24.15 9.116 1.413 0.651 2.614 2.062 3.625 3.222 0.05 1.179-0.024 2.629-0.053 3.83-5.127 6.547-21.647 10.949-29.208 14.716-0.225 0.498 1.073 12.521 1.26 14.17 5.194 45.856-7.304 97.784-41.309 130.56-2.231 2.095-4.219 4.426-6.557 6.414-27.287 23.206-62.003 35.572-97.52 38.012-2.551 0.175-5.254 0.737-7.751 0.788-7.512 0.152-15.042 0.088-22.555 0.089-3.095 3.379-5.182 7.432-7.55 11.361l-7.526 12.294c-5.084 8.388-10.545 16.679-15.679 25.039-1.808 3.602-4.925 7.616-6.786 11.009-10.279 17.938-23.361 18.188-41.779 18.276-15.306 0.073-31.356-3.448-35.66-20.735-3.932-15.794 10.506-26.981 20.24-36.686 2.623-2.615 4.998-5.819 7.643-8.622l23.011-24.075c4.601-4.874 12.345-11.422 15.821-16.763-9.64-0.811-38.004-8.87-46.496-15.447-1.584-1.489-1.57-2.877-1.613-4.882-0.138-6.456 11.101-11.288 16.086-15.015 8.365-6.254 16.753-12.33 24.546-19.344 14.663-13.18 27.698-28.066 38.828-44.341 9.851-14.562 16.975-28.976 22.169-45.811 7.633-24.739 5.918-51.696 20.934-73.908 2.754-4.074 6.03-8.746 9.594-12.166-6.578-2.303-8.936-1.606-14.878-6.261-0.243-1.196-0.483-2.007-0.839-3.179 0.848-3.719 1.041-4.474 4.101-6.83 7.551-0.363 7.995 1.571 14.439 2.635 3.348 0.553 13.061 0.322 16.872 0.269-6.031-4.531-16.261-8.153-18.755-16.401-0.201-0.664-0.036-3.124 5e-3 -3.945 1.134-1.728 1.9-2.357 3.48-3.55zm-26.494 142.45c6.779-7.491 28.034-14.155 37.874-14.528 32.362-1.133 57.089 29.254 52.984 60.481-6.452 49.078-63.068 73.86-106.57 80.022-10.081 1.429-17.804 1.659-27.901 1.637-2.346 2.282-3.808 4.74-6.052 6.986-6.83 6.729-13.392 13.208-19.564 20.559-3.996 4.761-10.11 9.314-14.048 14.146-6.71 8.233-14.682 15.024-21.397 23.242-4.239 5.188-9.216 6.609-9.338 14.442-9e-3 0.979 1e-3 1.958 0.029 2.936 1.589 1.873 5.471 6.783 8.211 6.335 2.803-2.856 8.053-9.937 10.754-13.314 3.874-4.777 7.681-9.607 11.419-14.49 1.405-1.821 3.271-4.005 4.504-5.872 2.681-3.332 5.339-6.682 7.974-10.049 3.541-4.585 6.851-10.147 12.481-12.192 3.07 1.173 5.566 2.327 7.107 5.571 0.465 0.98 0.713 2.859 0.184 3.774-3.593 6.202-9.73 13.704-14.259 19.347-6.89 8.583-15.152 20.804-22.681 28.392 7.313 0.165 13.71 0.672 19.515-4.935 4.659-4.5 9.278-12.705 12.785-18.235 6.685-10.417 13.263-20.903 19.732-31.456 3.972-6.507 7.828-13.225 12.046-19.587 0.761-1.147 1.651-1.991 2.835-2.697 10.244-0.232 20.376 0.525 30.507-0.889 2.457-0.342 5.36 0.022 7.854-0.287 7.414-0.918 15.893-1.885 23.196-3.449 27.438-5.874 54.733-19.754 73.962-40.364 4.616-4.948 10.153-12.436 13.577-18.255 1.49-2.532 3.935-6.269 5.179-8.805 9.132-18.602 13.966-37.727 15.272-58.379 0.331-5.226 1.229-9.481 0.782-15.087-0.225-2.825-0.473-5.155-0.781-7.97-0.285-2.603-0.24-5.336-0.531-8.093-0.663-6.283-2.152-12.588-3-18.738-12.59-8.887-18.967-25.577-15.46-40.55 0.282-1.203 2.047-7.584 1.625-8.181-12.1-17.13-39.006-26.395-58.19-24.672-4.903 0.905-9.292 1.356-14.253 2.739-11.564 3.051-21.822 10.467-29.499 19.606-17.939 21.356-15.246 51.805-23.952 77.092-1.591 4.622-3.344 9.174-4.914 13.767zm-38.456 60.424c10.527 0.558 16.856-7.849 23.292-0.643 0.391 0.441 0.774 0.89 1.148 1.346 0.043 2.643 0.217 5.467-2.039 7.53-4.783 4.375-15.906 6.414-22.257 6.895-3.993 0.303-11.725-0.556-15.009 0.698-2.571 0.983-7.659 6.69-9.811 8.943 3.299 1.279 4.324 0.912 7.486 1.526 5.973 1.161 9.414 0.59 15.253-0.029 7.376-0.781 14.062-2.01 21.124-4.467 5.704-1.773 7.328-4.021 13.439-3.655 2.247 1.55 2.821 2.383 4.705 4.305 0.231 2.685 0.382 4.847-1.44 7.077-4.908 6.01-29.484 10.885-37.462 11.543-2.59 0.214-5.22 0.143-7.816 0.117-2.078 0.015-7.104 0.106-8.995-0.117-5.412-0.637-15.756-2.788-20.587-5.012-2.366 2.411-6.977 5.645-9.834 7.617 3.681 0.731 7.009 2.71 10.57 3.701 6.4 1.781 13.071 2.893 19.61 4.032 3.412 0.581 6.979 0.698 10.441 0.77 2.543 0.053 6.928 1.184 9.284 0.878 4.981-0.648 10.505-0.72 15.401-1.232 6.539-0.683 13.506-2.294 19.892-3.754 16.73-3.856 31.268-9.527 45.793-18.84 14.719-9.437 27.808-22.502 31.836-40.077 2.625-11.453 1.353-22.05-5.012-32.009-4.664-7.299-13.461-14.565-22.117-16.183-4.62-0.863-8.813-0.966-13.49-0.693-17.563 1.614-40.518 18.97-51.654 32.121-6.785 8.013-13.863 20.405-21.751 27.612zm192.98-109.12c4.118 0.424 5.374-0.228 9.264-1.571 1.056-0.232 1.409-0.119 2.082-0.747-1.275-1.574-17.083-6.848-19.823-7.443 0.13 3.368 5.925 7.918 8.477 9.761zm5.682-40.732c-3.718 2.115-11.309 0.784-14.591 2.87-2.507 1.594-4.186 12.582-4.525 15.428l0.361 0.527 0.899 0.013c2.807-2.839 5.594-5.794 8.669-8.338 3.676-3.042 7.288-6.375 10.513-9.894l-0.053-0.432c-0.641-0.197-0.611-0.215-1.273-0.174z"/>
<path d="m310.23 179.27c9.558-2.154 19.534 1.03 26.078 8.323s8.634 17.556 5.463 26.828-11.107 16.105-20.746 17.861c-14.483 2.64-28.417-6.789-31.355-21.218-2.939-14.428 6.199-28.557 20.56-31.794zm11.431 42.325c1.251-0.485 1.417-0.281 1.838-1.159-0.63-1.476-3.673-2.326-5.17-3.497-7.751-6.067-7.147-18.623 1.197-23.818 0.674-0.419 4.084-1.114 5.095-1.334l0.153-0.398c-1.993-2.268-8.064-2.403-10.942-2.106-19.752 3.609-17.984 30.99 0.966 32.717 1.141 0.104 6.069 0.096 6.863-0.405z"/>
<path d="m299.21 92.059c33.565 2.9241 64.069 13.263 92.727 30.607 47.812 29.476 82.059 76.635 95.298 131.23 12.918 54.846 3.571 112.58-25.992 160.54-7.727 12.659-17.226 23.707-27.045 34.721-1.475 1.655-3.018 3.204-4.594 4.758-27.587 26.976-61.915 46.04-99.393 55.199-39.029 9.197-79.849 7.316-117.87-5.432-2.418-0.792-22.443-8.129-22.314-9.435 0.288-2.905 5.345-9.639 7.386-12.36 7.119 2.71 13.704 5.978 21.138 8.381 35.263 11.448 73.017 12.851 109.03 4.053 37.971-9.365 72.339-29.722 98.802-58.524 13.249-14.65 24.648-31.824 33.068-49.678 12.407-26.031 18.755-54.536 18.565-83.374-1e-3 -3.206 0.096-7.298-0.097-10.462-0.903-13.172-2.955-26.24-6.131-39.054-6.54-20.137-10.66-33.015-21.918-51.59-46.431-76.604-136.33-111.58-222.5-88.297-51.192 14.292-94.55 48.455-120.43 94.887-16.015 28.695-24.276 61.069-23.969 93.93-3e-4 3.222 0.0789 6.514 0.0133 9.729-0.1533 7.504 0.9558 14.866 2.1677 22.274 3.6119 23.243 11.438 45.63 23.093 66.06 4.561 8.098 10.216 15.848 15.654 23.382 1.085 2.014 4.348 4.33 4.879 6.398 0.493 1.92-3.527 5.043-4.568 6.42-1.309 1.732-2.306 3.186-3.725 4.663l-0.318 0.329c-4.364-3.542-7.036-7.503-10.339-11.854-41.451-54.596-53.289-128.92-31.022-193.71 4.1738-12.144 8.5195-22.292 14.642-33.788 28.927-53.046 79.042-91.285 137.84-105.17 22.778-5.2567 44.421-6.4487 67.921-4.829z"/>
</svg>
